<svg xmlns="http://www.w3.org/2000/svg" viewBox="0 0 1600 118" width="1600" height="118" role="img" aria-label="Society">
<defs><linearGradient id="bsociety" x1="0" y1="0" x2="1" y2="0">
  <stop offset="0" stop-color="#0F3D46"/><stop offset="0.55" stop-color="#111418"/>
  <stop offset="1" stop-color="#0A0B0C"/></linearGradient></defs>
<rect width="1600" height="118" fill="url(#bsociety)"/>
<path d="M0 36.8 L25 36.6 L50 36.3 L75 35.9 L100 35.6 L125 35.4 L150 35.3 L175 35.4 L200 35.7 L225 36.2 L250 36.7 L275 37.2 L300 37.7 L325 38.1 L350 38.1 L375 37.9 L400 37.3 L425 36.4 L450 35.1 L475 33.4 L500 31.6 L525 29.6 L550 27.6 L575 25.6 L600 23.8 L625 22.3 L650 21.2 L675 20.4 L700 20.0 L725 20.0 L750 20.2 L775 20.7 L800 21.4 L825 22.1 L850 22.8 L875 23.4 L900 23.8 L925 24.1 L950 24.1 L975 24.0 L1000 23.8 L1025 23.5 L1050 23.3 L1075 23.3 L1100 23.4 L1125 23.9 L1150 24.6 L1175 25.7 L1200 27.1 L1225 28.7 L1250 30.6 L1275 32.5 L1300 34.5 L1325 36.3 L1350 37.9 L1375 39.1 L1400 40.0 L1425 40.5 L1450 40.6 L1475 40.3 L1500 39.7 L1525 38.8 L1550 37.8 L1575 36.7 L1600 35.7" fill="none" stroke="#5EC3D0" stroke-width="1" opacity="0.10"/>
<path d="M0 38.1 L25 36.6 L50 35.6 L75 35.1 L100 35.3 L125 36.1 L150 37.5 L175 39.3 L200 41.3 L225 43.4 L250 45.3 L275 46.9 L300 48.1 L325 48.9 L350 49.4 L375 49.5 L400 49.6 L425 49.6 L450 49.8 L475 50.3 L500 51.2 L525 52.3 L550 53.7 L575 55.2 L600 56.6 L625 57.8 L650 58.5 L675 58.7 L700 58.3 L725 57.2 L750 55.6 L775 53.6 L800 51.3 L825 49.0 L850 46.8 L875 44.9 L900 43.5 L925 42.6 L950 42.1 L975 41.9 L1000 42.1 L1025 42.2 L1050 42.4 L1075 42.3 L1100 41.9 L1125 41.3 L1150 40.4 L1175 39.3 L1200 38.3 L1225 37.5 L1250 37.0 L1275 37.1 L1300 37.7 L1325 39.0 L1350 40.7 L1375 42.9 L1400 45.3 L1425 47.8 L1450 50.1 L1475 52.1 L1500 53.6 L1525 54.6 L1550 55.0 L1575 55.0 L1600 54.6" fill="none" stroke="#5EC3D0" stroke-width="1" opacity="0.15"/>
<path d="M0 65.8 L25 64.3 L50 63.0 L75 62.0 L100 61.3 L125 60.9 L150 60.7 L175 60.7 L200 60.7 L225 60.8 L250 60.8 L275 60.7 L300 60.4 L325 59.9 L350 59.2 L375 58.4 L400 57.4 L425 56.5 L450 55.6 L475 54.8 L500 54.3 L525 54.1 L550 54.3 L575 54.9 L600 55.8 L625 57.1 L650 58.7 L675 60.6 L700 62.5 L725 64.4 L750 66.3 L775 68.0 L800 69.4 L825 70.5 L850 71.2 L875 71.7 L900 71.9 L925 71.8 L950 71.5 L975 71.2 L1000 70.9 L1025 70.7 L1050 70.6 L1075 70.6 L1100 70.9 L1125 71.3 L1150 71.9 L1175 72.5 L1200 73.1 L1225 73.6 L1250 73.8 L1275 73.9 L1300 73.6 L1325 73.0 L1350 71.9 L1375 70.6 L1400 69.0 L1425 67.1 L1450 65.1 L1475 63.1 L1500 61.2 L1525 59.5 L1550 58.0 L1575 56.9 L1600 56.1" fill="none" stroke="#5EC3D0" stroke-width="1" opacity="0.20"/>
<path d="M0 80.2 L25 80.1 L50 80.1 L75 79.8 L100 79.3 L125 78.5 L150 77.3 L175 75.8 L200 74.3 L225 72.9 L250 71.8 L275 71.2 L300 71.2 L325 71.9 L350 73.2 L375 75.1 L400 77.4 L425 79.8 L450 82.1 L475 84.2 L500 85.9 L525 87.1 L550 87.7 L575 88.0 L600 87.9 L625 87.7 L650 87.5 L675 87.6 L700 87.9 L725 88.5 L750 89.4 L775 90.4 L800 91.4 L825 92.3 L850 92.7 L875 92.6 L900 91.9 L925 90.5 L950 88.6 L975 86.2 L1000 83.7 L1025 81.1 L1050 78.8 L1075 77.0 L1100 75.6 L1125 74.9 L1150 74.6 L1175 74.9 L1200 75.4 L1225 75.9 L1250 76.4 L1275 76.7 L1300 76.7 L1325 76.4 L1350 75.9 L1375 75.3 L1400 74.7 L1425 74.5 L1450 74.7 L1475 75.4 L1500 76.7 L1525 78.6 L1550 80.8 L1575 83.4 L1600 85.9" fill="none" stroke="#5EC3D0" stroke-width="1" opacity="0.10"/>
<path d="M0 96.0 L25 97.0 L50 97.8 L75 98.4 L100 98.7 L125 99.0 L150 99.1 L175 99.1 L200 99.2 L225 99.3 L250 99.6 L275 100.1 L300 100.8 L325 101.8 L350 102.9 L375 104.2 L400 105.7 L425 107.2 L450 108.6 L475 109.9 L500 111.0 L525 111.9 L550 112.3 L575 112.4 L600 112.2 L625 111.5 L650 110.5 L675 109.3 L700 107.9 L725 106.3 L750 104.8 L775 103.3 L800 101.9 L825 100.8 L850 99.9 L875 99.2 L900 98.8 L925 98.5 L950 98.4 L975 98.4 L1000 98.3 L1025 98.2 L1050 98.0 L1075 97.6 L1100 97.0 L1125 96.3 L1150 95.3 L1175 94.2 L1200 93.0 L1225 91.8 L1250 90.7 L1275 89.8 L1300 89.1 L1325 88.7 L1350 88.7 L1375 89.0 L1400 89.7 L1425 90.7 L1450 92.1 L1475 93.7 L1500 95.4 L1525 97.1 L1550 98.9 L1575 100.5 L1600 101.9" fill="none" stroke="#5EC3D0" stroke-width="1" opacity="0.15"/>
<path d="M0 129.0 L25 128.6 L50 127.7 L75 126.3 L100 124.6 L125 122.7 L150 120.6 L175 118.5 L200 116.6 L225 114.9 L250 113.6 L275 112.6 L300 111.9 L325 111.7 L350 111.7 L375 111.9 L400 112.1 L425 112.4 L450 112.5 L475 112.5 L500 112.3 L525 111.8 L550 111.2 L575 110.5 L600 109.7 L625 109.1 L650 108.7 L675 108.5 L700 108.8 L725 109.5 L750 110.6 L775 112.1 L800 114.0 L825 116.0 L850 118.2 L875 120.3 L900 122.3 L925 124.0 L950 125.3 L975 126.2 L1000 126.7 L1025 126.8 L1050 126.5 L1075 126.1 L1100 125.5 L1125 124.8 L1150 124.3 L1175 123.9 L1200 123.8 L1225 123.8 L1250 124.0 L1275 124.4 L1300 124.8 L1325 125.1 L1350 125.2 L1375 125.1 L1400 124.7 L1425 123.8 L1450 122.6 L1475 121.0 L1500 119.2 L1525 117.1 L1550 115.0 L1575 112.9 L1600 111.1" fill="none" stroke="#5EC3D0" stroke-width="1" opacity="0.20"/>
<circle cx="1439" cy="18" r="0.8" fill="#E6E1D6" opacity="0.03"/>
<circle cx="882" cy="3" r="0.6" fill="#E6E1D6" opacity="0.03"/>
<circle cx="550" cy="27" r="0.9" fill="#E6E1D6" opacity="0.05"/>
<circle cx="51" cy="2" r="0.5" fill="#E6E1D6" opacity="0.07"/>
<circle cx="798" cy="51" r="0.8" fill="#E6E1D6" opacity="0.02"/>
<circle cx="1479" cy="95" r="0.7" fill="#E6E1D6" opacity="0.02"/>
<circle cx="865" cy="48" r="0.5" fill="#E6E1D6" opacity="0.03"/>
<circle cx="489" cy="36" r="1.0" fill="#E6E1D6" opacity="0.04"/>
<circle cx="689" cy="45" r="0.5" fill="#E6E1D6" opacity="0.03"/>
<circle cx="1360" cy="37" r="0.9" fill="#E6E1D6" opacity="0.04"/>
<circle cx="883" cy="57" r="0.5" fill="#E6E1D6" opacity="0.05"/>
<circle cx="672" cy="21" r="0.6" fill="#E6E1D6" opacity="0.02"/>
<circle cx="1225" cy="69" r="0.4" fill="#E6E1D6" opacity="0.04"/>
<circle cx="274" cy="11" r="0.7" fill="#E6E1D6" opacity="0.04"/>
<circle cx="17" cy="70" r="1.0" fill="#E6E1D6" opacity="0.06"/>
<circle cx="344" cy="45" r="0.7" fill="#E6E1D6" opacity="0.06"/>
<circle cx="848" cy="103" r="1.1" fill="#E6E1D6" opacity="0.06"/>
<circle cx="338" cy="91" r="1.0" fill="#E6E1D6" opacity="0.06"/>
<circle cx="454" cy="5" r="0.4" fill="#E6E1D6" opacity="0.03"/>
<circle cx="800" cy="80" r="1.0" fill="#E6E1D6" opacity="0.06"/>
<circle cx="473" cy="82" r="0.8" fill="#E6E1D6" opacity="0.05"/>
<circle cx="1050" cy="50" r="1.1" fill="#E6E1D6" opacity="0.04"/>
<circle cx="605" cy="108" r="1.0" fill="#E6E1D6" opacity="0.04"/>
<circle cx="1493" cy="113" r="0.9" fill="#E6E1D6" opacity="0.03"/>
<circle cx="1133" cy="98" r="0.5" fill="#E6E1D6" opacity="0.03"/>
<circle cx="608" cy="39" r="0.8" fill="#E6E1D6" opacity="0.02"/>
<circle cx="1057" cy="92" r="0.4" fill="#E6E1D6" opacity="0.02"/>
<circle cx="1199" cy="29" r="0.7" fill="#E6E1D6" opacity="0.03"/>
<circle cx="648" cy="82" r="1.0" fill="#E6E1D6" opacity="0.04"/>
<circle cx="798" cy="62" r="1.0" fill="#E6E1D6" opacity="0.05"/>
<circle cx="1108" cy="83" r="0.5" fill="#E6E1D6" opacity="0.05"/>
<circle cx="888" cy="63" r="0.8" fill="#E6E1D6" opacity="0.04"/>
<circle cx="717" cy="89" r="0.5" fill="#E6E1D6" opacity="0.07"/>
<circle cx="455" cy="45" r="0.7" fill="#E6E1D6" opacity="0.03"/>
<circle cx="963" cy="40" r="0.7" fill="#E6E1D6" opacity="0.05"/>
<circle cx="901" cy="94" r="0.9" fill="#E6E1D6" opacity="0.05"/>
<circle cx="1078" cy="92" r="1.0" fill="#E6E1D6" opacity="0.06"/>
<circle cx="560" cy="27" r="0.6" fill="#E6E1D6" opacity="0.05"/>
<circle cx="1006" cy="71" r="0.8" fill="#E6E1D6" opacity="0.06"/>
<circle cx="597" cy="38" r="1.0" fill="#E6E1D6" opacity="0.06"/>
<circle cx="944" cy="38" r="1.0" fill="#E6E1D6" opacity="0.06"/>
<circle cx="947" cy="18" r="0.9" fill="#E6E1D6" opacity="0.06"/>
<circle cx="507" cy="56" r="0.9" fill="#E6E1D6" opacity="0.04"/>
<circle cx="1455" cy="14" r="0.8" fill="#E6E1D6" opacity="0.04"/>
<circle cx="1487" cy="75" r="0.7" fill="#E6E1D6" opacity="0.06"/>
<circle cx="231" cy="12" r="0.6" fill="#E6E1D6" opacity="0.05"/>
<circle cx="939" cy="34" r="0.7" fill="#E6E1D6" opacity="0.06"/>
<circle cx="583" cy="46" r="0.6" fill="#E6E1D6" opacity="0.04"/>
<circle cx="1173" cy="54" r="0.4" fill="#E6E1D6" opacity="0.04"/>
<circle cx="98" cy="70" r="0.8" fill="#E6E1D6" opacity="0.06"/>
<circle cx="1548" cy="30" r="0.6" fill="#E6E1D6" opacity="0.02"/>
<circle cx="768" cy="111" r="0.8" fill="#E6E1D6" opacity="0.03"/>
<circle cx="499" cy="103" r="0.6" fill="#E6E1D6" opacity="0.04"/>
<circle cx="1309" cy="113" r="0.4" fill="#E6E1D6" opacity="0.06"/>
<circle cx="1502" cy="95" r="0.5" fill="#E6E1D6" opacity="0.05"/>
<circle cx="1317" cy="70" r="0.6" fill="#E6E1D6" opacity="0.05"/>
<circle cx="1408" cy="101" r="0.4" fill="#E6E1D6" opacity="0.05"/>
<circle cx="1421" cy="54" r="0.8" fill="#E6E1D6" opacity="0.03"/>
<circle cx="307" cy="33" r="0.6" fill="#E6E1D6" opacity="0.03"/>
<circle cx="1126" cy="6" r="0.5" fill="#E6E1D6" opacity="0.02"/>
<circle cx="278" cy="31" r="0.7" fill="#E6E1D6" opacity="0.02"/>
<circle cx="1476" cy="61" r="0.8" fill="#E6E1D6" opacity="0.06"/>
<circle cx="1560" cy="31" r="1.0" fill="#E6E1D6" opacity="0.05"/>
<circle cx="230" cy="9" r="0.4" fill="#E6E1D6" opacity="0.05"/>
<circle cx="1233" cy="78" r="0.5" fill="#E6E1D6" opacity="0.05"/>
<circle cx="1320" cy="9" r="0.4" fill="#E6E1D6" opacity="0.04"/>
<circle cx="543" cy="50" r="1.0" fill="#E6E1D6" opacity="0.06"/>
<circle cx="471" cy="58" r="0.7" fill="#E6E1D6" opacity="0.06"/>
<circle cx="675" cy="76" r="0.6" fill="#E6E1D6" opacity="0.06"/>
<circle cx="938" cy="68" r="0.4" fill="#E6E1D6" opacity="0.06"/>
<circle cx="1024" cy="46" r="0.9" fill="#E6E1D6" opacity="0.04"/>
<circle cx="1335" cy="86" r="0.9" fill="#E6E1D6" opacity="0.04"/>
<circle cx="1211" cy="92" r="0.8" fill="#E6E1D6" opacity="0.05"/>
<circle cx="252" cy="67" r="0.7" fill="#E6E1D6" opacity="0.04"/>
<circle cx="483" cy="37" r="0.9" fill="#E6E1D6" opacity="0.04"/>
<circle cx="1571" cy="52" r="1.1" fill="#E6E1D6" opacity="0.04"/>
<circle cx="1038" cy="87" r="0.5" fill="#E6E1D6" opacity="0.06"/>
<circle cx="966" cy="31" r="0.7" fill="#E6E1D6" opacity="0.03"/>
<circle cx="362" cy="84" r="0.7" fill="#E6E1D6" opacity="0.06"/>
<circle cx="529" cy="93" r="0.9" fill="#E6E1D6" opacity="0.05"/>
<circle cx="649" cy="65" r="0.5" fill="#E6E1D6" opacity="0.04"/>
<circle cx="740" cy="72" r="0.4" fill="#E6E1D6" opacity="0.06"/>
<circle cx="582" cy="63" r="0.5" fill="#E6E1D6" opacity="0.02"/>
<circle cx="419" cy="79" r="0.6" fill="#E6E1D6" opacity="0.04"/>
<circle cx="723" cy="110" r="1.0" fill="#E6E1D6" opacity="0.04"/>
<circle cx="910" cy="44" r="0.8" fill="#E6E1D6" opacity="0.06"/>
<circle cx="1194" cy="100" r="1.0" fill="#E6E1D6" opacity="0.03"/>
<circle cx="598" cy="58" r="1.0" fill="#E6E1D6" opacity="0.07"/>
<circle cx="486" cy="21" r="1.0" fill="#E6E1D6" opacity="0.06"/>
<circle cx="988" cy="52" r="1.0" fill="#E6E1D6" opacity="0.04"/>
<circle cx="157" cy="31" r="0.9" fill="#E6E1D6" opacity="0.03"/>
<circle cx="1020" cy="31" r="1.0" fill="#E6E1D6" opacity="0.06"/>
<circle cx="1461" cy="27" r="0.7" fill="#E6E1D6" opacity="0.04"/>
<circle cx="169" cy="115" r="0.5" fill="#E6E1D6" opacity="0.03"/>
<circle cx="787" cy="2" r="0.8" fill="#E6E1D6" opacity="0.03"/>
<circle cx="16" cy="10" r="1.0" fill="#E6E1D6" opacity="0.03"/>
<circle cx="860" cy="22" r="0.4" fill="#E6E1D6" opacity="0.05"/>
<circle cx="1251" cy="80" r="0.6" fill="#E6E1D6" opacity="0.07"/>
<circle cx="945" cy="40" r="0.8" fill="#E6E1D6" opacity="0.06"/>
<circle cx="701" cy="33" r="0.5" fill="#E6E1D6" opacity="0.05"/>
<circle cx="71" cy="106" r="0.8" fill="#E6E1D6" opacity="0.02"/>
<circle cx="0" cy="58" r="1.0" fill="#E6E1D6" opacity="0.07"/>
<circle cx="1528" cy="94" r="0.8" fill="#E6E1D6" opacity="0.03"/>
<circle cx="1086" cy="8" r="0.8" fill="#E6E1D6" opacity="0.04"/>
<circle cx="79" cy="87" r="1.0" fill="#E6E1D6" opacity="0.05"/>
<circle cx="121" cy="36" r="0.7" fill="#E6E1D6" opacity="0.04"/>
<circle cx="350" cy="100" r="0.7" fill="#E6E1D6" opacity="0.04"/>
<circle cx="520" cy="89" r="0.5" fill="#E6E1D6" opacity="0.05"/>
<circle cx="1222" cy="28" r="1.0" fill="#E6E1D6" opacity="0.04"/>
<circle cx="142" cy="16" r="0.8" fill="#E6E1D6" opacity="0.02"/>
<circle cx="1265" cy="46" r="0.5" fill="#E6E1D6" opacity="0.04"/>
<circle cx="916" cy="40" r="0.7" fill="#E6E1D6" opacity="0.03"/>
<circle cx="1111" cy="28" r="1.0" fill="#E6E1D6" opacity="0.06"/>
<circle cx="755" cy="87" r="1.1" fill="#E6E1D6" opacity="0.07"/>
<circle cx="1341" cy="23" r="0.7" fill="#E6E1D6" opacity="0.07"/>
<circle cx="719" cy="7" r="1.1" fill="#E6E1D6" opacity="0.05"/>
<circle cx="62" cy="23" r="0.4" fill="#E6E1D6" opacity="0.03"/>
<circle cx="1086" cy="39" r="0.8" fill="#E6E1D6" opacity="0.06"/>
<circle cx="1515" cy="16" r="0.9" fill="#E6E1D6" opacity="0.05"/>
<circle cx="375" cy="89" r="1.0" fill="#E6E1D6" opacity="0.06"/>
<circle cx="780" cy="96" r="0.7" fill="#E6E1D6" opacity="0.05"/>
<circle cx="1599" cy="63" r="0.5" fill="#E6E1D6" opacity="0.07"/>
<circle cx="742" cy="57" r="0.7" fill="#E6E1D6" opacity="0.04"/>
<circle cx="702" cy="94" r="0.6" fill="#E6E1D6" opacity="0.03"/>
<circle cx="1213" cy="97" r="0.4" fill="#E6E1D6" opacity="0.06"/>
<circle cx="1519" cy="26" r="0.8" fill="#E6E1D6" opacity="0.05"/>
<circle cx="1261" cy="94" r="0.9" fill="#E6E1D6" opacity="0.02"/>
<circle cx="1214" cy="18" r="0.4" fill="#E6E1D6" opacity="0.06"/>
<circle cx="1169" cy="104" r="0.5" fill="#E6E1D6" opacity="0.05"/>
<circle cx="827" cy="47" r="0.8" fill="#E6E1D6" opacity="0.04"/>
<circle cx="67" cy="64" r="0.8" fill="#E6E1D6" opacity="0.02"/>
<circle cx="1228" cy="114" r="0.9" fill="#E6E1D6" opacity="0.05"/>
<circle cx="600" cy="14" r="0.5" fill="#E6E1D6" opacity="0.02"/>
<circle cx="1459" cy="74" r="1.1" fill="#E6E1D6" opacity="0.06"/>
<circle cx="1286" cy="110" r="0.8" fill="#E6E1D6" opacity="0.02"/>
<circle cx="1553" cy="70" r="1.0" fill="#E6E1D6" opacity="0.04"/>
<circle cx="314" cy="102" r="0.5" fill="#E6E1D6" opacity="0.05"/>
<circle cx="593" cy="109" r="0.9" fill="#E6E1D6" opacity="0.03"/>
<circle cx="217" cy="61" r="0.8" fill="#E6E1D6" opacity="0.06"/>
<circle cx="440" cy="107" r="0.5" fill="#E6E1D6" opacity="0.03"/>
<circle cx="1066" cy="24" r="0.7" fill="#E6E1D6" opacity="0.02"/>
<circle cx="133" cy="74" r="0.7" fill="#E6E1D6" opacity="0.05"/>
<circle cx="684" cy="63" r="1.0" fill="#E6E1D6" opacity="0.03"/>
<circle cx="785" cy="29" r="0.6" fill="#E6E1D6" opacity="0.03"/>
<circle cx="805" cy="37" r="1.0" fill="#E6E1D6" opacity="0.04"/>
<circle cx="813" cy="60" r="0.8" fill="#E6E1D6" opacity="0.04"/>
<circle cx="932" cy="1" r="0.9" fill="#E6E1D6" opacity="0.06"/>
<circle cx="644" cy="68" r="1.0" fill="#E6E1D6" opacity="0.04"/>
<circle cx="136" cy="94" r="0.6" fill="#E6E1D6" opacity="0.06"/>
<circle cx="898" cy="17" r="0.5" fill="#E6E1D6" opacity="0.07"/>
<circle cx="706" cy="80" r="0.5" fill="#E6E1D6" opacity="0.06"/>
<circle cx="281" cy="20" r="0.6" fill="#E6E1D6" opacity="0.06"/>
<circle cx="1461" cy="79" r="0.5" fill="#E6E1D6" opacity="0.03"/>
<circle cx="1037" cy="44" r="1.0" fill="#E6E1D6" opacity="0.03"/>
<circle cx="393" cy="39" r="0.5" fill="#E6E1D6" opacity="0.03"/>
<circle cx="1305" cy="47" r="0.7" fill="#E6E1D6" opacity="0.05"/>
<circle cx="1326" cy="17" r="1.0" fill="#E6E1D6" opacity="0.05"/>
<circle cx="1369" cy="110" r="0.7" fill="#E6E1D6" opacity="0.06"/>
<circle cx="1262" cy="39" r="1.0" fill="#E6E1D6" opacity="0.04"/>
<circle cx="1170" cy="66" r="0.7" fill="#E6E1D6" opacity="0.03"/>
<circle cx="801" cy="81" r="0.6" fill="#E6E1D6" opacity="0.07"/>
<circle cx="731" cy="105" r="0.5" fill="#E6E1D6" opacity="0.03"/>
<circle cx="895" cy="30" r="0.7" fill="#E6E1D6" opacity="0.03"/>
<circle cx="853" cy="54" r="1.0" fill="#E6E1D6" opacity="0.07"/>
<circle cx="1278" cy="5" r="0.9" fill="#E6E1D6" opacity="0.03"/>
<circle cx="1161" cy="45" r="0.9" fill="#E6E1D6" opacity="0.04"/>
<circle cx="471" cy="98" r="0.8" fill="#E6E1D6" opacity="0.04"/>
<circle cx="527" cy="26" r="1.1" fill="#E6E1D6" opacity="0.05"/>
<circle cx="264" cy="52" r="0.8" fill="#E6E1D6" opacity="0.06"/>
<circle cx="411" cy="85" r="0.5" fill="#E6E1D6" opacity="0.06"/>
<circle cx="401" cy="34" r="0.9" fill="#E6E1D6" opacity="0.07"/>
<circle cx="334" cy="90" r="1.0" fill="#E6E1D6" opacity="0.03"/>
<circle cx="1169" cy="66" r="0.9" fill="#E6E1D6" opacity="0.06"/>
<circle cx="509" cy="91" r="0.8" fill="#E6E1D6" opacity="0.04"/>
<circle cx="871" cy="40" r="0.9" fill="#E6E1D6" opacity="0.06"/>
<circle cx="658" cy="59" r="0.8" fill="#E6E1D6" opacity="0.05"/>
<circle cx="1391" cy="7" r="0.8" fill="#E6E1D6" opacity="0.04"/>
<circle cx="1381" cy="3" r="0.7" fill="#E6E1D6" opacity="0.07"/>
<circle cx="933" cy="29" r="0.4" fill="#E6E1D6" opacity="0.03"/>
<circle cx="989" cy="16" r="0.8" fill="#E6E1D6" opacity="0.06"/>
<circle cx="1159" cy="22" r="0.8" fill="#E6E1D6" opacity="0.04"/>
<circle cx="656" cy="17" r="0.6" fill="#E6E1D6" opacity="0.03"/>
<circle cx="530" cy="67" r="1.0" fill="#E6E1D6" opacity="0.05"/>
<circle cx="153" cy="116" r="0.9" fill="#E6E1D6" opacity="0.05"/>
<circle cx="706" cy="64" r="0.8" fill="#E6E1D6" opacity="0.05"/>
<circle cx="1592" cy="34" r="0.4" fill="#E6E1D6" opacity="0.04"/>
<circle cx="237" cy="113" r="0.9" fill="#E6E1D6" opacity="0.06"/>
<circle cx="248" cy="101" r="0.7" fill="#E6E1D6" opacity="0.04"/>
<circle cx="43" cy="54" r="0.8" fill="#E6E1D6" opacity="0.05"/>
<circle cx="1144" cy="95" r="0.6" fill="#E6E1D6" opacity="0.06"/>
<circle cx="1442" cy="15" r="0.7" fill="#E6E1D6" opacity="0.04"/>
<circle cx="266" cy="33" r="0.8" fill="#E6E1D6" opacity="0.06"/>
<circle cx="1550" cy="3" r="0.7" fill="#E6E1D6" opacity="0.06"/>
<circle cx="214" cy="8" r="0.7" fill="#E6E1D6" opacity="0.03"/>
<circle cx="12" cy="63" r="0.5" fill="#E6E1D6" opacity="0.03"/>
<circle cx="457" cy="117" r="0.5" fill="#E6E1D6" opacity="0.03"/>
<circle cx="214" cy="40" r="1.1" fill="#E6E1D6" opacity="0.03"/>
<circle cx="357" cy="21" r="0.5" fill="#E6E1D6" opacity="0.05"/>
<circle cx="1580" cy="12" r="1.0" fill="#E6E1D6" opacity="0.05"/>
<circle cx="1555" cy="17" r="0.7" fill="#E6E1D6" opacity="0.05"/>
<circle cx="324" cy="75" r="0.7" fill="#E6E1D6" opacity="0.07"/>
<circle cx="44" cy="58" r="0.5" fill="#E6E1D6" opacity="0.04"/>
<circle cx="305" cy="22" r="0.6" fill="#E6E1D6" opacity="0.03"/>
<circle cx="610" cy="96" r="1.0" fill="#E6E1D6" opacity="0.07"/>
<circle cx="195" cy="28" r="0.9" fill="#E6E1D6" opacity="0.02"/>
<circle cx="245" cy="44" r="0.9" fill="#E6E1D6" opacity="0.02"/>
<circle cx="335" cy="83" r="1.0" fill="#E6E1D6" opacity="0.06"/>
<circle cx="568" cy="85" r="0.7" fill="#E6E1D6" opacity="0.06"/>
<circle cx="591" cy="35" r="0.6" fill="#E6E1D6" opacity="0.02"/>
<circle cx="14" cy="34" r="0.5" fill="#E6E1D6" opacity="0.02"/>
<circle cx="244" cy="74" r="0.8" fill="#E6E1D6" opacity="0.02"/>
<circle cx="764" cy="117" r="1.0" fill="#E6E1D6" opacity="0.03"/>
<circle cx="1067" cy="106" r="0.6" fill="#E6E1D6" opacity="0.05"/>
<circle cx="1031" cy="86" r="0.9" fill="#E6E1D6" opacity="0.04"/>
<circle cx="1478" cy="68" r="1.0" fill="#E6E1D6" opacity="0.03"/>
<circle cx="783" cy="29" r="0.8" fill="#E6E1D6" opacity="0.06"/>
<circle cx="1052" cy="37" r="1.0" fill="#E6E1D6" opacity="0.04"/>
<circle cx="687" cy="19" r="1.1" fill="#E6E1D6" opacity="0.05"/>
<circle cx="1441" cy="47" r="1.0" fill="#E6E1D6" opacity="0.06"/>
<circle cx="698" cy="39" r="0.9" fill="#E6E1D6" opacity="0.07"/>
<circle cx="985" cy="11" r="0.8" fill="#E6E1D6" opacity="0.05"/>
<circle cx="739" cy="18" r="0.5" fill="#E6E1D6" opacity="0.07"/>
<circle cx="81" cy="111" r="0.9" fill="#E6E1D6" opacity="0.06"/>
<circle cx="1221" cy="112" r="0.6" fill="#E6E1D6" opacity="0.02"/>
<circle cx="661" cy="81" r="0.5" fill="#E6E1D6" opacity="0.03"/>
<circle cx="681" cy="65" r="0.6" fill="#E6E1D6" opacity="0.03"/>
<circle cx="736" cy="63" r="1.0" fill="#E6E1D6" opacity="0.05"/>
<circle cx="287" cy="21" r="0.8" fill="#E6E1D6" opacity="0.06"/>
<circle cx="1072" cy="45" r="0.7" fill="#E6E1D6" opacity="0.04"/>
<circle cx="1106" cy="9" r="1.1" fill="#E6E1D6" opacity="0.06"/>
<circle cx="619" cy="69" r="0.7" fill="#E6E1D6" opacity="0.04"/>
<circle cx="1129" cy="69" r="0.9" fill="#E6E1D6" opacity="0.05"/>
<circle cx="1471" cy="111" r="0.7" fill="#E6E1D6" opacity="0.07"/>
<circle cx="1405" cy="38" r="0.8" fill="#E6E1D6" opacity="0.05"/>
<circle cx="680" cy="81" r="0.4" fill="#E6E1D6" opacity="0.05"/>
<circle cx="541" cy="79" r="0.5" fill="#E6E1D6" opacity="0.06"/>
<circle cx="725" cy="94" r="0.8" fill="#E6E1D6" opacity="0.04"/>
<circle cx="1541" cy="77" r="0.7" fill="#E6E1D6" opacity="0.04"/>
<circle cx="352" cy="99" r="0.6" fill="#E6E1D6" opacity="0.05"/>
<circle cx="298" cy="46" r="0.7" fill="#E6E1D6" opacity="0.05"/>
<circle cx="862" cy="5" r="0.5" fill="#E6E1D6" opacity="0.06"/>
<circle cx="724" cy="83" r="1.0" fill="#E6E1D6" opacity="0.06"/>
<circle cx="130" cy="84" r="0.9" fill="#E6E1D6" opacity="0.04"/>
<circle cx="1148" cy="81" r="0.9" fill="#E6E1D6" opacity="0.05"/>
<circle cx="835" cy="74" r="0.9" fill="#E6E1D6" opacity="0.04"/>
<circle cx="1538" cy="50" r="0.9" fill="#E6E1D6" opacity="0.03"/>
<circle cx="1275" cy="46" r="0.8" fill="#E6E1D6" opacity="0.03"/>
<circle cx="975" cy="109" r="1.0" fill="#E6E1D6" opacity="0.02"/>
<circle cx="384" cy="64" r="0.5" fill="#E6E1D6" opacity="0.05"/>
<circle cx="1141" cy="101" r="1.0" fill="#E6E1D6" opacity="0.06"/>
<circle cx="1429" cy="65" r="1.1" fill="#E6E1D6" opacity="0.05"/>
<circle cx="120" cy="109" r="0.7" fill="#E6E1D6" opacity="0.04"/>
<circle cx="876" cy="38" r="0.4" fill="#E6E1D6" opacity="0.07"/>
<circle cx="1496" cy="2" r="1.0" fill="#E6E1D6" opacity="0.06"/>
<circle cx="427" cy="9" r="0.5" fill="#E6E1D6" opacity="0.04"/>
<circle cx="450" cy="31" r="0.9" fill="#E6E1D6" opacity="0.07"/>
<circle cx="996" cy="39" r="0.4" fill="#E6E1D6" opacity="0.05"/>
<circle cx="1427" cy="32" r="0.4" fill="#E6E1D6" opacity="0.05"/>
<circle cx="832" cy="59" r="0.6" fill="#E6E1D6" opacity="0.05"/>
<circle cx="1438" cy="86" r="0.4" fill="#E6E1D6" opacity="0.07"/>
<circle cx="1066" cy="76" r="0.5" fill="#E6E1D6" opacity="0.07"/>
<circle cx="218" cy="82" r="0.6" fill="#E6E1D6" opacity="0.03"/>
<circle cx="713" cy="38" r="0.7" fill="#E6E1D6" opacity="0.07"/>
<circle cx="553" cy="106" r="0.7" fill="#E6E1D6" opacity="0.06"/>
<circle cx="1418" cy="27" r="0.6" fill="#E6E1D6" opacity="0.06"/>
<circle cx="849" cy="86" r="0.6" fill="#E6E1D6" opacity="0.02"/>
<circle cx="869" cy="98" r="0.9" fill="#E6E1D6" opacity="0.06"/>
<circle cx="897" cy="14" r="0.4" fill="#E6E1D6" opacity="0.07"/>
<circle cx="857" cy="57" r="0.8" fill="#E6E1D6" opacity="0.03"/>
<circle cx="1142" cy="106" r="1.0" fill="#E6E1D6" opacity="0.04"/>
<circle cx="1165" cy="117" r="0.5" fill="#E6E1D6" opacity="0.06"/>
<circle cx="68" cy="80" r="1.1" fill="#E6E1D6" opacity="0.04"/>
<circle cx="1190" cy="97" r="0.5" fill="#E6E1D6" opacity="0.05"/>
<circle cx="1049" cy="88" r="1.0" fill="#E6E1D6" opacity="0.03"/>
<circle cx="491" cy="50" r="0.9" fill="#E6E1D6" opacity="0.04"/>
<circle cx="655" cy="116" r="0.6" fill="#E6E1D6" opacity="0.06"/>
<circle cx="530" cy="38" r="0.8" fill="#E6E1D6" opacity="0.06"/>
<circle cx="84" cy="87" r="0.8" fill="#E6E1D6" opacity="0.03"/>
<circle cx="698" cy="79" r="0.7" fill="#E6E1D6" opacity="0.05"/>
<circle cx="1426" cy="46" r="0.5" fill="#E6E1D6" opacity="0.06"/>
<circle cx="69" cy="114" r="1.0" fill="#E6E1D6" opacity="0.05"/>
<circle cx="1390" cy="88" r="0.5" fill="#E6E1D6" opacity="0.06"/>
<circle cx="1227" cy="90" r="1.0" fill="#E6E1D6" opacity="0.03"/>
<circle cx="1316" cy="100" r="0.9" fill="#E6E1D6" opacity="0.06"/>
<circle cx="656" cy="90" r="0.4" fill="#E6E1D6" opacity="0.06"/>
<circle cx="1538" cy="62" r="1.0" fill="#E6E1D6" opacity="0.03"/>
<circle cx="25" cy="93" r="0.9" fill="#E6E1D6" opacity="0.03"/>
<circle cx="126" cy="9" r="0.6" fill="#E6E1D6" opacity="0.06"/>
<circle cx="1261" cy="59" r="1.0" fill="#E6E1D6" opacity="0.05"/>
<circle cx="391" cy="69" r="0.6" fill="#E6E1D6" opacity="0.05"/>
<circle cx="612" cy="27" r="0.5" fill="#E6E1D6" opacity="0.05"/>
<circle cx="456" cy="52" r="1.1" fill="#E6E1D6" opacity="0.07"/>
<circle cx="0" cy="16" r="0.8" fill="#E6E1D6" opacity="0.05"/>
<circle cx="68" cy="14" r="0.8" fill="#E6E1D6" opacity="0.02"/>
<circle cx="278" cy="80" r="0.8" fill="#E6E1D6" opacity="0.05"/>
<circle cx="1522" cy="116" r="1.0" fill="#E6E1D6" opacity="0.03"/>
<circle cx="1103" cy="108" r="0.6" fill="#E6E1D6" opacity="0.04"/>
<circle cx="871" cy="105" r="1.0" fill="#E6E1D6" opacity="0.07"/>
<circle cx="764" cy="16" r="0.7" fill="#E6E1D6" opacity="0.02"/>
<circle cx="655" cy="86" r="0.9" fill="#E6E1D6" opacity="0.05"/>
<circle cx="1330" cy="53" r="0.7" fill="#E6E1D6" opacity="0.03"/>
<circle cx="468" cy="6" r="0.9" fill="#E6E1D6" opacity="0.06"/>
<circle cx="317" cy="46" r="0.5" fill="#E6E1D6" opacity="0.03"/>
<circle cx="585" cy="31" r="0.5" fill="#E6E1D6" opacity="0.06"/>
<circle cx="1072" cy="63" r="1.0" fill="#E6E1D6" opacity="0.04"/>
<circle cx="130" cy="88" r="1.0" fill="#E6E1D6" opacity="0.06"/>
<circle cx="1371" cy="89" r="0.5" fill="#E6E1D6" opacity="0.02"/>
<circle cx="480" cy="63" r="1.1" fill="#E6E1D6" opacity="0.02"/>
<circle cx="1352" cy="24" r="0.6" fill="#E6E1D6" opacity="0.05"/>
<circle cx="1276" cy="35" r="0.9" fill="#E6E1D6" opacity="0.05"/>
<circle cx="1190" cy="80" r="0.8" fill="#E6E1D6" opacity="0.06"/>
<circle cx="1451" cy="15" r="0.6" fill="#E6E1D6" opacity="0.05"/>
<circle cx="742" cy="63" r="0.9" fill="#E6E1D6" opacity="0.03"/>
<circle cx="147" cy="44" r="0.7" fill="#E6E1D6" opacity="0.04"/>
<circle cx="657" cy="4" r="1.1" fill="#E6E1D6" opacity="0.06"/>
<circle cx="34" cy="32" r="0.7" fill="#E6E1D6" opacity="0.05"/>
<circle cx="172" cy="9" r="1.0" fill="#E6E1D6" opacity="0.04"/>
<circle cx="202" cy="6" r="1.1" fill="#E6E1D6" opacity="0.02"/>
<circle cx="986" cy="17" r="0.5" fill="#E6E1D6" opacity="0.06"/>
<circle cx="1595" cy="43" r="0.7" fill="#E6E1D6" opacity="0.03"/>
<rect x="0" y="0" width="4" height="118" fill="#B7A57A" opacity="0.8"/>
<rect x="0" y="117" width="1600" height="1" fill="#8C7A52" opacity="0.4"/>
<text x="48" y="72" font-family="Georgia,'Iowan Old Style','Times New Roman',serif" font-size="34" fill="#5EC3D0" opacity="0.9">❝</text>
<text x="104" y="60" font-family="Georgia,'Iowan Old Style','Times New Roman',serif" font-size="33" fill="#E6E1D6" letter-spacing="1.5">Society</text>
<text x="104" y="90" font-family="'Segoe UI',Inter,'Helvetica Neue',Arial,sans-serif" font-size="16" fill="#8C9399" letter-spacing="0.3">Standing, prejudice, work, crime and the watch</text>
</svg>
