<svg xmlns="http://www.w3.org/2000/svg" viewBox="0 0 1600 118" width="1600" height="118" role="img" aria-label="The Sea">
<defs><linearGradient id="bsea" x1="0" y1="0" x2="1" y2="0">
  <stop offset="0" stop-color="#0F3D46"/><stop offset="0.55" stop-color="#111418"/>
  <stop offset="1" stop-color="#0A0B0C"/></linearGradient></defs>
<rect width="1600" height="118" fill="url(#bsea)"/>
<path d="M0 28.2 L25 26.8 L50 26.1 L75 25.8 L100 25.8 L125 25.9 L150 25.7 L175 25.2 L200 24.3 L225 23.1 L250 21.6 L275 20.2 L300 19.1 L325 18.5 L350 18.7 L375 19.8 L400 21.6 L425 24.0 L450 26.8 L475 29.6 L500 32.0 L525 34.0 L550 35.3 L575 35.9 L600 36.0 L625 35.7 L650 35.3 L675 35.0 L700 35.1 L725 35.5 L750 36.3 L775 37.2 L800 38.1 L825 38.7 L850 38.8 L875 38.1 L900 36.7 L925 34.6 L950 31.9 L975 29.0 L1000 26.2 L1025 23.8 L1050 22.0 L1075 20.9 L1100 20.6 L1125 20.9 L1150 21.6 L1175 22.5 L1200 23.2 L1225 23.7 L1250 23.8 L1275 23.5 L1300 23.0 L1325 22.6 L1350 22.4 L1375 22.7 L1400 23.7 L1425 25.3 L1450 27.6 L1475 30.3 L1500 33.2 L1525 35.8 L1550 38.0 L1575 39.5 L1600 40.1" fill="none" stroke="#5EC3D0" stroke-width="1" opacity="0.10"/>
<path d="M0 38.0 L25 39.2 L50 40.4 L75 41.7 L100 42.9 L125 44.0 L150 44.9 L175 45.7 L200 46.3 L225 46.7 L250 46.9 L275 47.1 L300 47.1 L325 47.2 L350 47.3 L375 47.4 L400 47.7 L425 48.2 L450 48.8 L475 49.6 L500 50.6 L525 51.7 L550 52.9 L575 54.2 L600 55.5 L625 56.6 L650 57.6 L675 58.4 L700 59.0 L725 59.2 L750 59.2 L775 58.8 L800 58.1 L825 57.2 L850 56.0 L875 54.6 L900 53.2 L925 51.7 L950 50.2 L975 48.8 L1000 47.6 L1025 46.5 L1050 45.7 L1075 45.0 L1100 44.6 L1125 44.3 L1150 44.2 L1175 44.2 L1200 44.2 L1225 44.2 L1250 44.1 L1275 43.9 L1300 43.6 L1325 43.2 L1350 42.5 L1375 41.8 L1400 40.9 L1425 40.0 L1450 39.0 L1475 38.1 L1500 37.2 L1525 36.6 L1550 36.1 L1575 35.9 L1600 36.0" fill="none" stroke="#5EC3D0" stroke-width="1" opacity="0.15"/>
<path d="M0 62.0 L25 62.0 L50 62.4 L75 63.2 L100 64.7 L125 66.7 L150 69.2 L175 71.8 L200 74.1 L225 75.9 L250 76.8 L275 76.9 L300 76.0 L325 74.4 L350 72.3 L375 70.1 L400 68.1 L425 66.5 L450 65.5 L475 64.9 L500 64.7 L525 64.6 L550 64.4 L575 63.7 L600 62.5 L625 60.8 L650 58.8 L675 56.6 L700 54.7 L725 53.4 L750 52.9 L775 53.3 L800 54.6 L825 56.7 L850 59.2 L875 61.8 L900 64.2 L925 66.0 L950 67.3 L975 67.9 L1000 68.1 L1025 68.1 L1050 68.2 L1075 68.5 L1100 69.3 L1125 70.5 L1150 72.1 L1175 73.7 L1200 75.1 L1225 76.0 L1250 76.0 L1275 75.2 L1300 73.5 L1325 71.1 L1350 68.3 L1375 65.4 L1400 62.8 L1425 60.8 L1450 59.5 L1475 58.9 L1500 58.9 L1525 59.1 L1550 59.5 L1575 59.6 L1600 59.3" fill="none" stroke="#5EC3D0" stroke-width="1" opacity="0.20"/>
<path d="M0 70.5 L25 71.2 L50 72.4 L75 74.1 L100 75.9 L125 77.9 L150 79.6 L175 81.1 L200 82.3 L225 83.0 L250 83.4 L275 83.5 L300 83.6 L325 83.7 L350 84.1 L375 84.8 L400 85.8 L425 87.2 L450 88.8 L475 90.5 L500 92.1 L525 93.4 L550 94.2 L575 94.5 L600 94.1 L625 93.1 L650 91.5 L675 89.5 L700 87.3 L725 85.0 L750 83.0 L775 81.3 L800 80.0 L825 79.1 L850 78.7 L875 78.6 L900 78.7 L925 78.7 L950 78.6 L975 78.3 L1000 77.6 L1025 76.7 L1050 75.5 L1075 74.3 L1100 73.1 L1125 72.2 L1150 71.7 L1175 71.9 L1200 72.6 L1225 73.9 L1250 75.8 L1275 78.1 L1300 80.5 L1325 82.9 L1350 85.1 L1375 86.9 L1400 88.2 L1425 89.0 L1450 89.3 L1475 89.3 L1500 89.0 L1525 88.6 L1550 88.3 L1575 88.2 L1600 88.4" fill="none" stroke="#5EC3D0" stroke-width="1" opacity="0.10"/>
<path d="M0 90.1 L25 89.2 L50 88.5 L75 88.2 L100 88.2 L125 88.6 L150 89.2 L175 90.2 L200 91.4 L225 92.7 L250 94.2 L275 95.7 L300 97.1 L325 98.4 L350 99.5 L375 100.5 L400 101.2 L425 101.8 L450 102.1 L475 102.3 L500 102.4 L525 102.4 L550 102.4 L575 102.5 L600 102.7 L625 103.1 L650 103.6 L675 104.3 L700 105.2 L725 106.2 L750 107.3 L775 108.4 L800 109.4 L825 110.4 L850 111.1 L875 111.7 L900 111.9 L925 111.8 L950 111.4 L975 110.7 L1000 109.6 L1025 108.3 L1050 106.8 L1075 105.2 L1100 103.6 L1125 101.9 L1150 100.4 L1175 99.0 L1200 97.8 L1225 96.8 L1250 96.1 L1275 95.6 L1300 95.4 L1325 95.3 L1350 95.3 L1375 95.4 L1400 95.6 L1425 95.6 L1450 95.6 L1475 95.4 L1500 95.1 L1525 94.7 L1550 94.1 L1575 93.3 L1600 92.6" fill="none" stroke="#5EC3D0" stroke-width="1" opacity="0.15"/>
<path d="M0 120.5 L25 118.7 L50 117.1 L75 115.7 L100 114.7 L125 114.0 L150 113.7 L175 113.5 L200 113.5 L225 113.6 L250 113.7 L275 113.7 L300 113.5 L325 113.1 L350 112.5 L375 111.7 L400 110.8 L425 109.8 L450 108.9 L475 108.1 L500 107.6 L525 107.4 L550 107.6 L575 108.2 L600 109.2 L625 110.7 L650 112.4 L675 114.4 L700 116.4 L725 118.4 L750 120.3 L775 122.0 L800 123.3 L825 124.3 L850 124.9 L875 125.2 L900 125.2 L925 124.9 L950 124.6 L975 124.2 L1000 123.9 L1025 123.8 L1050 123.8 L1075 124.0 L1100 124.4 L1125 125.0 L1150 125.6 L1175 126.1 L1200 126.6 L1225 126.8 L1250 126.7 L1275 126.2 L1300 125.4 L1325 124.2 L1350 122.6 L1375 120.7 L1400 118.7 L1425 116.6 L1450 114.5 L1475 112.7 L1500 111.1 L1525 109.9 L1550 109.1 L1575 108.6 L1600 108.6" fill="none" stroke="#5EC3D0" stroke-width="1" opacity="0.20"/>
<circle cx="1095" cy="64" r="0.5" fill="#E6E1D6" opacity="0.05"/>
<circle cx="581" cy="15" r="0.8" fill="#E6E1D6" opacity="0.04"/>
<circle cx="942" cy="26" r="0.6" fill="#E6E1D6" opacity="0.03"/>
<circle cx="269" cy="17" r="0.8" fill="#E6E1D6" opacity="0.04"/>
<circle cx="799" cy="9" r="0.4" fill="#E6E1D6" opacity="0.03"/>
<circle cx="1477" cy="33" r="0.5" fill="#E6E1D6" opacity="0.05"/>
<circle cx="255" cy="13" r="0.8" fill="#E6E1D6" opacity="0.02"/>
<circle cx="229" cy="4" r="0.9" fill="#E6E1D6" opacity="0.05"/>
<circle cx="782" cy="97" r="0.4" fill="#E6E1D6" opacity="0.06"/>
<circle cx="528" cy="44" r="0.9" fill="#E6E1D6" opacity="0.03"/>
<circle cx="57" cy="5" r="0.4" fill="#E6E1D6" opacity="0.02"/>
<circle cx="548" cy="14" r="0.5" fill="#E6E1D6" opacity="0.07"/>
<circle cx="1164" cy="5" r="0.5" fill="#E6E1D6" opacity="0.06"/>
<circle cx="548" cy="1" r="1.0" fill="#E6E1D6" opacity="0.04"/>
<circle cx="536" cy="45" r="0.8" fill="#E6E1D6" opacity="0.06"/>
<circle cx="519" cy="11" r="1.1" fill="#E6E1D6" opacity="0.04"/>
<circle cx="580" cy="34" r="0.8" fill="#E6E1D6" opacity="0.03"/>
<circle cx="564" cy="59" r="0.8" fill="#E6E1D6" opacity="0.07"/>
<circle cx="112" cy="60" r="0.9" fill="#E6E1D6" opacity="0.07"/>
<circle cx="628" cy="13" r="0.7" fill="#E6E1D6" opacity="0.05"/>
<circle cx="323" cy="18" r="1.1" fill="#E6E1D6" opacity="0.05"/>
<circle cx="245" cy="68" r="1.1" fill="#E6E1D6" opacity="0.04"/>
<circle cx="1277" cy="5" r="0.6" fill="#E6E1D6" opacity="0.05"/>
<circle cx="921" cy="104" r="1.1" fill="#E6E1D6" opacity="0.06"/>
<circle cx="1568" cy="51" r="1.0" fill="#E6E1D6" opacity="0.06"/>
<circle cx="292" cy="23" r="0.9" fill="#E6E1D6" opacity="0.04"/>
<circle cx="865" cy="34" r="0.7" fill="#E6E1D6" opacity="0.06"/>
<circle cx="922" cy="37" r="0.5" fill="#E6E1D6" opacity="0.05"/>
<circle cx="1217" cy="93" r="0.5" fill="#E6E1D6" opacity="0.03"/>
<circle cx="455" cy="80" r="0.9" fill="#E6E1D6" opacity="0.05"/>
<circle cx="752" cy="115" r="1.1" fill="#E6E1D6" opacity="0.06"/>
<circle cx="627" cy="2" r="0.4" fill="#E6E1D6" opacity="0.04"/>
<circle cx="1094" cy="58" r="0.5" fill="#E6E1D6" opacity="0.07"/>
<circle cx="639" cy="33" r="1.1" fill="#E6E1D6" opacity="0.06"/>
<circle cx="892" cy="84" r="1.0" fill="#E6E1D6" opacity="0.05"/>
<circle cx="753" cy="74" r="0.5" fill="#E6E1D6" opacity="0.02"/>
<circle cx="331" cy="115" r="0.9" fill="#E6E1D6" opacity="0.02"/>
<circle cx="799" cy="81" r="0.5" fill="#E6E1D6" opacity="0.04"/>
<circle cx="981" cy="2" r="0.4" fill="#E6E1D6" opacity="0.07"/>
<circle cx="46" cy="28" r="0.6" fill="#E6E1D6" opacity="0.02"/>
<circle cx="1164" cy="70" r="0.6" fill="#E6E1D6" opacity="0.05"/>
<circle cx="285" cy="2" r="0.8" fill="#E6E1D6" opacity="0.06"/>
<circle cx="546" cy="103" r="0.8" fill="#E6E1D6" opacity="0.04"/>
<circle cx="190" cy="51" r="0.6" fill="#E6E1D6" opacity="0.04"/>
<circle cx="856" cy="99" r="0.7" fill="#E6E1D6" opacity="0.03"/>
<circle cx="168" cy="111" r="1.0" fill="#E6E1D6" opacity="0.04"/>
<circle cx="305" cy="106" r="0.6" fill="#E6E1D6" opacity="0.03"/>
<circle cx="726" cy="65" r="1.0" fill="#E6E1D6" opacity="0.02"/>
<circle cx="768" cy="64" r="0.9" fill="#E6E1D6" opacity="0.03"/>
<circle cx="702" cy="86" r="1.0" fill="#E6E1D6" opacity="0.05"/>
<circle cx="67" cy="30" r="0.4" fill="#E6E1D6" opacity="0.05"/>
<circle cx="196" cy="22" r="0.6" fill="#E6E1D6" opacity="0.04"/>
<circle cx="1026" cy="26" r="0.4" fill="#E6E1D6" opacity="0.03"/>
<circle cx="1497" cy="107" r="0.6" fill="#E6E1D6" opacity="0.05"/>
<circle cx="45" cy="103" r="0.6" fill="#E6E1D6" opacity="0.04"/>
<circle cx="303" cy="68" r="0.7" fill="#E6E1D6" opacity="0.04"/>
<circle cx="289" cy="34" r="0.8" fill="#E6E1D6" opacity="0.03"/>
<circle cx="680" cy="61" r="0.5" fill="#E6E1D6" opacity="0.03"/>
<circle cx="1165" cy="23" r="0.9" fill="#E6E1D6" opacity="0.07"/>
<circle cx="1520" cy="46" r="0.5" fill="#E6E1D6" opacity="0.07"/>
<circle cx="1139" cy="108" r="0.5" fill="#E6E1D6" opacity="0.03"/>
<circle cx="1206" cy="23" r="0.9" fill="#E6E1D6" opacity="0.06"/>
<circle cx="78" cy="99" r="0.9" fill="#E6E1D6" opacity="0.04"/>
<circle cx="346" cy="112" r="1.0" fill="#E6E1D6" opacity="0.06"/>
<circle cx="1212" cy="19" r="0.6" fill="#E6E1D6" opacity="0.04"/>
<circle cx="1543" cy="63" r="0.8" fill="#E6E1D6" opacity="0.07"/>
<circle cx="1521" cy="73" r="0.7" fill="#E6E1D6" opacity="0.04"/>
<circle cx="636" cy="71" r="0.5" fill="#E6E1D6" opacity="0.05"/>
<circle cx="868" cy="66" r="0.5" fill="#E6E1D6" opacity="0.06"/>
<circle cx="1469" cy="51" r="0.9" fill="#E6E1D6" opacity="0.05"/>
<circle cx="381" cy="66" r="0.8" fill="#E6E1D6" opacity="0.03"/>
<circle cx="1044" cy="116" r="0.4" fill="#E6E1D6" opacity="0.03"/>
<circle cx="1009" cy="13" r="0.9" fill="#E6E1D6" opacity="0.06"/>
<circle cx="494" cy="51" r="0.6" fill="#E6E1D6" opacity="0.03"/>
<circle cx="379" cy="107" r="0.7" fill="#E6E1D6" opacity="0.04"/>
<circle cx="711" cy="92" r="0.7" fill="#E6E1D6" opacity="0.07"/>
<circle cx="727" cy="100" r="0.5" fill="#E6E1D6" opacity="0.06"/>
<circle cx="1467" cy="95" r="0.4" fill="#E6E1D6" opacity="0.04"/>
<circle cx="1510" cy="38" r="1.0" fill="#E6E1D6" opacity="0.07"/>
<circle cx="1237" cy="41" r="0.7" fill="#E6E1D6" opacity="0.04"/>
<circle cx="1221" cy="17" r="1.0" fill="#E6E1D6" opacity="0.03"/>
<circle cx="886" cy="11" r="1.1" fill="#E6E1D6" opacity="0.06"/>
<circle cx="668" cy="46" r="0.5" fill="#E6E1D6" opacity="0.02"/>
<circle cx="1504" cy="32" r="0.6" fill="#E6E1D6" opacity="0.07"/>
<circle cx="1476" cy="71" r="1.0" fill="#E6E1D6" opacity="0.04"/>
<circle cx="801" cy="117" r="0.8" fill="#E6E1D6" opacity="0.03"/>
<circle cx="128" cy="74" r="0.7" fill="#E6E1D6" opacity="0.05"/>
<circle cx="1048" cy="110" r="0.4" fill="#E6E1D6" opacity="0.06"/>
<circle cx="1523" cy="20" r="0.9" fill="#E6E1D6" opacity="0.05"/>
<circle cx="682" cy="110" r="0.9" fill="#E6E1D6" opacity="0.05"/>
<circle cx="1176" cy="56" r="1.0" fill="#E6E1D6" opacity="0.06"/>
<circle cx="1101" cy="82" r="0.9" fill="#E6E1D6" opacity="0.06"/>
<circle cx="778" cy="35" r="1.0" fill="#E6E1D6" opacity="0.04"/>
<circle cx="794" cy="51" r="0.8" fill="#E6E1D6" opacity="0.06"/>
<circle cx="246" cy="53" r="0.7" fill="#E6E1D6" opacity="0.03"/>
<circle cx="889" cy="72" r="0.4" fill="#E6E1D6" opacity="0.05"/>
<circle cx="1118" cy="29" r="1.0" fill="#E6E1D6" opacity="0.05"/>
<circle cx="495" cy="102" r="0.8" fill="#E6E1D6" opacity="0.05"/>
<circle cx="588" cy="20" r="0.8" fill="#E6E1D6" opacity="0.04"/>
<circle cx="1461" cy="74" r="0.5" fill="#E6E1D6" opacity="0.05"/>
<circle cx="373" cy="86" r="0.9" fill="#E6E1D6" opacity="0.03"/>
<circle cx="666" cy="12" r="0.6" fill="#E6E1D6" opacity="0.04"/>
<circle cx="1304" cy="18" r="0.5" fill="#E6E1D6" opacity="0.06"/>
<circle cx="1030" cy="113" r="1.0" fill="#E6E1D6" opacity="0.06"/>
<circle cx="1052" cy="31" r="0.6" fill="#E6E1D6" opacity="0.03"/>
<circle cx="640" cy="105" r="1.0" fill="#E6E1D6" opacity="0.03"/>
<circle cx="1328" cy="113" r="0.9" fill="#E6E1D6" opacity="0.02"/>
<circle cx="24" cy="86" r="0.7" fill="#E6E1D6" opacity="0.07"/>
<circle cx="253" cy="105" r="0.5" fill="#E6E1D6" opacity="0.05"/>
<circle cx="517" cy="38" r="0.8" fill="#E6E1D6" opacity="0.02"/>
<circle cx="263" cy="23" r="0.5" fill="#E6E1D6" opacity="0.07"/>
<circle cx="632" cy="88" r="0.5" fill="#E6E1D6" opacity="0.05"/>
<circle cx="1475" cy="59" r="0.9" fill="#E6E1D6" opacity="0.02"/>
<circle cx="964" cy="12" r="0.4" fill="#E6E1D6" opacity="0.07"/>
<circle cx="1114" cy="47" r="1.0" fill="#E6E1D6" opacity="0.06"/>
<circle cx="609" cy="35" r="0.9" fill="#E6E1D6" opacity="0.03"/>
<circle cx="1087" cy="110" r="1.0" fill="#E6E1D6" opacity="0.03"/>
<circle cx="401" cy="17" r="0.9" fill="#E6E1D6" opacity="0.02"/>
<circle cx="194" cy="53" r="0.8" fill="#E6E1D6" opacity="0.03"/>
<circle cx="1413" cy="52" r="0.9" fill="#E6E1D6" opacity="0.03"/>
<circle cx="499" cy="36" r="0.5" fill="#E6E1D6" opacity="0.07"/>
<circle cx="909" cy="92" r="0.5" fill="#E6E1D6" opacity="0.07"/>
<circle cx="973" cy="58" r="0.5" fill="#E6E1D6" opacity="0.06"/>
<circle cx="770" cy="67" r="0.9" fill="#E6E1D6" opacity="0.03"/>
<circle cx="1484" cy="52" r="0.7" fill="#E6E1D6" opacity="0.04"/>
<circle cx="1333" cy="18" r="0.5" fill="#E6E1D6" opacity="0.02"/>
<circle cx="829" cy="85" r="0.9" fill="#E6E1D6" opacity="0.04"/>
<circle cx="1371" cy="20" r="0.8" fill="#E6E1D6" opacity="0.06"/>
<circle cx="321" cy="64" r="1.0" fill="#E6E1D6" opacity="0.04"/>
<circle cx="1078" cy="88" r="0.5" fill="#E6E1D6" opacity="0.05"/>
<circle cx="671" cy="70" r="0.8" fill="#E6E1D6" opacity="0.07"/>
<circle cx="839" cy="66" r="1.0" fill="#E6E1D6" opacity="0.06"/>
<circle cx="1" cy="98" r="0.7" fill="#E6E1D6" opacity="0.04"/>
<circle cx="1280" cy="84" r="0.7" fill="#E6E1D6" opacity="0.05"/>
<circle cx="1140" cy="43" r="0.7" fill="#E6E1D6" opacity="0.02"/>
<circle cx="125" cy="78" r="0.5" fill="#E6E1D6" opacity="0.06"/>
<circle cx="558" cy="96" r="1.0" fill="#E6E1D6" opacity="0.04"/>
<circle cx="1406" cy="1" r="0.6" fill="#E6E1D6" opacity="0.04"/>
<circle cx="1459" cy="68" r="0.9" fill="#E6E1D6" opacity="0.05"/>
<circle cx="95" cy="111" r="0.9" fill="#E6E1D6" opacity="0.04"/>
<circle cx="1532" cy="23" r="0.6" fill="#E6E1D6" opacity="0.07"/>
<circle cx="591" cy="28" r="0.8" fill="#E6E1D6" opacity="0.03"/>
<circle cx="503" cy="64" r="0.7" fill="#E6E1D6" opacity="0.07"/>
<circle cx="1528" cy="75" r="1.0" fill="#E6E1D6" opacity="0.06"/>
<circle cx="903" cy="105" r="0.6" fill="#E6E1D6" opacity="0.02"/>
<circle cx="387" cy="101" r="0.8" fill="#E6E1D6" opacity="0.06"/>
<circle cx="1445" cy="24" r="0.7" fill="#E6E1D6" opacity="0.07"/>
<circle cx="1270" cy="18" r="0.7" fill="#E6E1D6" opacity="0.06"/>
<circle cx="625" cy="62" r="0.7" fill="#E6E1D6" opacity="0.02"/>
<circle cx="1312" cy="102" r="1.0" fill="#E6E1D6" opacity="0.04"/>
<circle cx="82" cy="88" r="1.0" fill="#E6E1D6" opacity="0.06"/>
<circle cx="601" cy="103" r="0.7" fill="#E6E1D6" opacity="0.07"/>
<circle cx="1337" cy="24" r="0.7" fill="#E6E1D6" opacity="0.04"/>
<circle cx="471" cy="56" r="1.0" fill="#E6E1D6" opacity="0.05"/>
<circle cx="435" cy="114" r="1.0" fill="#E6E1D6" opacity="0.03"/>
<circle cx="574" cy="98" r="0.6" fill="#E6E1D6" opacity="0.04"/>
<circle cx="238" cy="36" r="0.9" fill="#E6E1D6" opacity="0.05"/>
<circle cx="917" cy="75" r="0.4" fill="#E6E1D6" opacity="0.05"/>
<circle cx="12" cy="64" r="1.0" fill="#E6E1D6" opacity="0.04"/>
<circle cx="1236" cy="24" r="1.1" fill="#E6E1D6" opacity="0.06"/>
<circle cx="1415" cy="35" r="0.6" fill="#E6E1D6" opacity="0.05"/>
<circle cx="185" cy="52" r="0.7" fill="#E6E1D6" opacity="0.06"/>
<circle cx="98" cy="58" r="0.9" fill="#E6E1D6" opacity="0.03"/>
<circle cx="94" cy="12" r="0.9" fill="#E6E1D6" opacity="0.03"/>
<circle cx="857" cy="5" r="0.7" fill="#E6E1D6" opacity="0.02"/>
<circle cx="1195" cy="103" r="1.1" fill="#E6E1D6" opacity="0.03"/>
<circle cx="1198" cy="40" r="0.7" fill="#E6E1D6" opacity="0.05"/>
<circle cx="1520" cy="38" r="0.8" fill="#E6E1D6" opacity="0.03"/>
<circle cx="831" cy="90" r="0.5" fill="#E6E1D6" opacity="0.02"/>
<circle cx="1083" cy="9" r="1.0" fill="#E6E1D6" opacity="0.03"/>
<circle cx="907" cy="50" r="0.6" fill="#E6E1D6" opacity="0.04"/>
<circle cx="308" cy="98" r="1.1" fill="#E6E1D6" opacity="0.03"/>
<circle cx="1136" cy="102" r="0.9" fill="#E6E1D6" opacity="0.06"/>
<circle cx="814" cy="43" r="0.5" fill="#E6E1D6" opacity="0.05"/>
<circle cx="197" cy="118" r="0.9" fill="#E6E1D6" opacity="0.04"/>
<circle cx="1380" cy="48" r="0.8" fill="#E6E1D6" opacity="0.05"/>
<circle cx="289" cy="5" r="0.4" fill="#E6E1D6" opacity="0.02"/>
<circle cx="1186" cy="36" r="1.0" fill="#E6E1D6" opacity="0.07"/>
<circle cx="1436" cy="15" r="0.7" fill="#E6E1D6" opacity="0.05"/>
<circle cx="747" cy="35" r="1.1" fill="#E6E1D6" opacity="0.05"/>
<circle cx="460" cy="4" r="0.8" fill="#E6E1D6" opacity="0.03"/>
<circle cx="131" cy="13" r="1.0" fill="#E6E1D6" opacity="0.06"/>
<circle cx="1310" cy="61" r="0.7" fill="#E6E1D6" opacity="0.04"/>
<circle cx="423" cy="112" r="0.5" fill="#E6E1D6" opacity="0.03"/>
<circle cx="420" cy="12" r="1.0" fill="#E6E1D6" opacity="0.06"/>
<circle cx="1025" cy="107" r="0.7" fill="#E6E1D6" opacity="0.07"/>
<circle cx="0" cy="78" r="0.9" fill="#E6E1D6" opacity="0.06"/>
<circle cx="771" cy="46" r="0.5" fill="#E6E1D6" opacity="0.06"/>
<circle cx="547" cy="61" r="0.5" fill="#E6E1D6" opacity="0.04"/>
<circle cx="1332" cy="69" r="1.1" fill="#E6E1D6" opacity="0.03"/>
<circle cx="361" cy="49" r="0.9" fill="#E6E1D6" opacity="0.06"/>
<circle cx="740" cy="2" r="0.9" fill="#E6E1D6" opacity="0.02"/>
<circle cx="312" cy="3" r="0.6" fill="#E6E1D6" opacity="0.04"/>
<circle cx="274" cy="95" r="0.5" fill="#E6E1D6" opacity="0.02"/>
<circle cx="605" cy="38" r="0.9" fill="#E6E1D6" opacity="0.05"/>
<circle cx="97" cy="38" r="0.8" fill="#E6E1D6" opacity="0.03"/>
<circle cx="186" cy="74" r="0.7" fill="#E6E1D6" opacity="0.05"/>
<circle cx="1185" cy="93" r="1.0" fill="#E6E1D6" opacity="0.04"/>
<circle cx="1380" cy="104" r="0.6" fill="#E6E1D6" opacity="0.04"/>
<circle cx="904" cy="65" r="0.6" fill="#E6E1D6" opacity="0.06"/>
<circle cx="513" cy="67" r="0.8" fill="#E6E1D6" opacity="0.07"/>
<circle cx="1132" cy="96" r="1.0" fill="#E6E1D6" opacity="0.04"/>
<circle cx="1513" cy="102" r="0.7" fill="#E6E1D6" opacity="0.04"/>
<circle cx="45" cy="104" r="0.4" fill="#E6E1D6" opacity="0.02"/>
<circle cx="1324" cy="108" r="0.5" fill="#E6E1D6" opacity="0.02"/>
<circle cx="927" cy="34" r="0.7" fill="#E6E1D6" opacity="0.04"/>
<circle cx="1266" cy="63" r="0.9" fill="#E6E1D6" opacity="0.03"/>
<circle cx="698" cy="11" r="1.0" fill="#E6E1D6" opacity="0.05"/>
<circle cx="1061" cy="112" r="0.5" fill="#E6E1D6" opacity="0.05"/>
<circle cx="990" cy="50" r="1.0" fill="#E6E1D6" opacity="0.05"/>
<circle cx="136" cy="70" r="0.9" fill="#E6E1D6" opacity="0.06"/>
<circle cx="125" cy="39" r="1.0" fill="#E6E1D6" opacity="0.06"/>
<circle cx="70" cy="37" r="0.6" fill="#E6E1D6" opacity="0.03"/>
<circle cx="279" cy="63" r="0.5" fill="#E6E1D6" opacity="0.04"/>
<circle cx="1564" cy="95" r="0.6" fill="#E6E1D6" opacity="0.03"/>
<circle cx="450" cy="98" r="1.0" fill="#E6E1D6" opacity="0.03"/>
<circle cx="1515" cy="67" r="0.7" fill="#E6E1D6" opacity="0.07"/>
<circle cx="1057" cy="53" r="0.6" fill="#E6E1D6" opacity="0.07"/>
<circle cx="948" cy="16" r="0.7" fill="#E6E1D6" opacity="0.05"/>
<circle cx="1187" cy="6" r="0.6" fill="#E6E1D6" opacity="0.04"/>
<circle cx="1380" cy="107" r="0.5" fill="#E6E1D6" opacity="0.03"/>
<circle cx="195" cy="99" r="0.5" fill="#E6E1D6" opacity="0.03"/>
<circle cx="418" cy="111" r="0.7" fill="#E6E1D6" opacity="0.02"/>
<circle cx="1556" cy="26" r="0.5" fill="#E6E1D6" opacity="0.02"/>
<circle cx="864" cy="3" r="1.0" fill="#E6E1D6" opacity="0.06"/>
<circle cx="456" cy="35" r="0.8" fill="#E6E1D6" opacity="0.06"/>
<circle cx="38" cy="79" r="0.6" fill="#E6E1D6" opacity="0.06"/>
<circle cx="117" cy="73" r="1.0" fill="#E6E1D6" opacity="0.03"/>
<circle cx="170" cy="101" r="0.9" fill="#E6E1D6" opacity="0.05"/>
<circle cx="572" cy="93" r="0.4" fill="#E6E1D6" opacity="0.06"/>
<circle cx="1530" cy="98" r="0.9" fill="#E6E1D6" opacity="0.05"/>
<circle cx="559" cy="23" r="0.9" fill="#E6E1D6" opacity="0.05"/>
<circle cx="82" cy="14" r="0.6" fill="#E6E1D6" opacity="0.02"/>
<circle cx="506" cy="66" r="0.8" fill="#E6E1D6" opacity="0.05"/>
<circle cx="1249" cy="108" r="1.1" fill="#E6E1D6" opacity="0.06"/>
<circle cx="47" cy="39" r="0.5" fill="#E6E1D6" opacity="0.04"/>
<circle cx="1405" cy="95" r="1.0" fill="#E6E1D6" opacity="0.06"/>
<circle cx="490" cy="21" r="0.9" fill="#E6E1D6" opacity="0.06"/>
<circle cx="1318" cy="77" r="0.7" fill="#E6E1D6" opacity="0.05"/>
<circle cx="1155" cy="70" r="0.8" fill="#E6E1D6" opacity="0.03"/>
<circle cx="1390" cy="96" r="0.4" fill="#E6E1D6" opacity="0.07"/>
<circle cx="1495" cy="16" r="1.1" fill="#E6E1D6" opacity="0.02"/>
<circle cx="376" cy="15" r="0.8" fill="#E6E1D6" opacity="0.04"/>
<circle cx="1146" cy="52" r="0.5" fill="#E6E1D6" opacity="0.03"/>
<circle cx="184" cy="86" r="0.5" fill="#E6E1D6" opacity="0.05"/>
<circle cx="320" cy="47" r="0.8" fill="#E6E1D6" opacity="0.04"/>
<circle cx="563" cy="41" r="1.0" fill="#E6E1D6" opacity="0.04"/>
<circle cx="1337" cy="14" r="0.5" fill="#E6E1D6" opacity="0.06"/>
<circle cx="1085" cy="104" r="0.6" fill="#E6E1D6" opacity="0.06"/>
<circle cx="511" cy="116" r="0.4" fill="#E6E1D6" opacity="0.03"/>
<circle cx="52" cy="104" r="0.7" fill="#E6E1D6" opacity="0.03"/>
<circle cx="445" cy="82" r="0.8" fill="#E6E1D6" opacity="0.03"/>
<circle cx="1410" cy="8" r="0.6" fill="#E6E1D6" opacity="0.05"/>
<circle cx="276" cy="104" r="0.4" fill="#E6E1D6" opacity="0.06"/>
<circle cx="1352" cy="116" r="0.6" fill="#E6E1D6" opacity="0.03"/>
<circle cx="1522" cy="44" r="0.9" fill="#E6E1D6" opacity="0.07"/>
<circle cx="438" cy="57" r="0.6" fill="#E6E1D6" opacity="0.04"/>
<circle cx="848" cy="50" r="0.6" fill="#E6E1D6" opacity="0.06"/>
<circle cx="1083" cy="6" r="0.6" fill="#E6E1D6" opacity="0.03"/>
<circle cx="508" cy="88" r="1.0" fill="#E6E1D6" opacity="0.02"/>
<circle cx="275" cy="74" r="0.8" fill="#E6E1D6" opacity="0.04"/>
<circle cx="660" cy="98" r="0.7" fill="#E6E1D6" opacity="0.05"/>
<circle cx="1256" cy="98" r="1.0" fill="#E6E1D6" opacity="0.03"/>
<circle cx="708" cy="90" r="0.4" fill="#E6E1D6" opacity="0.04"/>
<circle cx="45" cy="71" r="0.8" fill="#E6E1D6" opacity="0.03"/>
<circle cx="9" cy="41" r="1.1" fill="#E6E1D6" opacity="0.05"/>
<circle cx="388" cy="7" r="0.5" fill="#E6E1D6" opacity="0.06"/>
<circle cx="929" cy="78" r="0.4" fill="#E6E1D6" opacity="0.03"/>
<circle cx="1124" cy="48" r="0.7" fill="#E6E1D6" opacity="0.07"/>
<circle cx="797" cy="84" r="0.7" fill="#E6E1D6" opacity="0.05"/>
<circle cx="1466" cy="113" r="0.9" fill="#E6E1D6" opacity="0.05"/>
<circle cx="1249" cy="52" r="0.5" fill="#E6E1D6" opacity="0.02"/>
<circle cx="150" cy="39" r="0.5" fill="#E6E1D6" opacity="0.05"/>
<circle cx="1595" cy="106" r="1.0" fill="#E6E1D6" opacity="0.03"/>
<circle cx="1482" cy="2" r="0.8" fill="#E6E1D6" opacity="0.05"/>
<circle cx="1323" cy="32" r="0.9" fill="#E6E1D6" opacity="0.02"/>
<circle cx="502" cy="76" r="0.5" fill="#E6E1D6" opacity="0.07"/>
<circle cx="953" cy="28" r="0.6" fill="#E6E1D6" opacity="0.06"/>
<circle cx="50" cy="43" r="1.1" fill="#E6E1D6" opacity="0.03"/>
<circle cx="507" cy="49" r="0.7" fill="#E6E1D6" opacity="0.02"/>
<circle cx="420" cy="43" r="1.0" fill="#E6E1D6" opacity="0.05"/>
<circle cx="1224" cy="34" r="0.7" fill="#E6E1D6" opacity="0.06"/>
<circle cx="26" cy="32" r="0.4" fill="#E6E1D6" opacity="0.06"/>
<circle cx="851" cy="46" r="0.5" fill="#E6E1D6" opacity="0.04"/>
<circle cx="433" cy="20" r="0.6" fill="#E6E1D6" opacity="0.02"/>
<circle cx="1498" cy="27" r="0.6" fill="#E6E1D6" opacity="0.05"/>
<circle cx="967" cy="10" r="1.0" fill="#E6E1D6" opacity="0.04"/>
<circle cx="451" cy="96" r="0.9" fill="#E6E1D6" opacity="0.05"/>
<circle cx="1566" cy="113" r="1.1" fill="#E6E1D6" opacity="0.05"/>
<circle cx="38" cy="70" r="0.9" fill="#E6E1D6" opacity="0.06"/>
<circle cx="637" cy="64" r="0.5" fill="#E6E1D6" opacity="0.03"/>
<circle cx="1022" cy="51" r="0.8" fill="#E6E1D6" opacity="0.07"/>
<circle cx="1195" cy="81" r="0.5" fill="#E6E1D6" opacity="0.04"/>
<circle cx="1457" cy="1" r="0.5" fill="#E6E1D6" opacity="0.05"/>
<circle cx="1311" cy="118" r="0.9" fill="#E6E1D6" opacity="0.06"/>
<circle cx="1590" cy="109" r="1.0" fill="#E6E1D6" opacity="0.05"/>
<circle cx="456" cy="113" r="0.8" fill="#E6E1D6" opacity="0.07"/>
<circle cx="72" cy="6" r="0.8" fill="#E6E1D6" opacity="0.05"/>
<circle cx="1155" cy="78" r="0.8" fill="#E6E1D6" opacity="0.06"/>
<circle cx="1193" cy="91" r="0.9" fill="#E6E1D6" opacity="0.02"/>
<circle cx="361" cy="72" r="0.8" fill="#E6E1D6" opacity="0.03"/>
<circle cx="530" cy="92" r="0.6" fill="#E6E1D6" opacity="0.03"/>
<circle cx="193" cy="25" r="0.9" fill="#E6E1D6" opacity="0.07"/>
<circle cx="767" cy="7" r="0.7" fill="#E6E1D6" opacity="0.03"/>
<circle cx="298" cy="96" r="1.1" fill="#E6E1D6" opacity="0.06"/>
<circle cx="1117" cy="10" r="0.5" fill="#E6E1D6" opacity="0.02"/>
<circle cx="978" cy="47" r="1.0" fill="#E6E1D6" opacity="0.03"/>
<circle cx="1421" cy="36" r="0.8" fill="#E6E1D6" opacity="0.03"/>
<circle cx="1194" cy="70" r="0.8" fill="#E6E1D6" opacity="0.07"/>
<circle cx="1146" cy="109" r="0.9" fill="#E6E1D6" opacity="0.05"/>
<circle cx="530" cy="98" r="0.6" fill="#E6E1D6" opacity="0.05"/>
<circle cx="715" cy="83" r="0.8" fill="#E6E1D6" opacity="0.06"/>
<circle cx="1494" cy="65" r="1.0" fill="#E6E1D6" opacity="0.07"/>
<circle cx="668" cy="99" r="0.6" fill="#E6E1D6" opacity="0.06"/>
<circle cx="236" cy="44" r="1.1" fill="#E6E1D6" opacity="0.03"/>
<circle cx="1493" cy="97" r="0.8" fill="#E6E1D6" opacity="0.03"/>
<circle cx="753" cy="32" r="1.1" fill="#E6E1D6" opacity="0.06"/>
<circle cx="784" cy="68" r="0.6" fill="#E6E1D6" opacity="0.03"/>
<circle cx="905" cy="35" r="0.9" fill="#E6E1D6" opacity="0.03"/>
<circle cx="508" cy="26" r="0.7" fill="#E6E1D6" opacity="0.05"/>
<rect x="0" y="0" width="4" height="118" fill="#B7A57A" opacity="0.8"/>
<rect x="0" y="117" width="1600" height="1" fill="#8C7A52" opacity="0.4"/>
<text x="48" y="72" font-family="Georgia,'Iowan Old Style','Times New Roman',serif" font-size="34" fill="#5EC3D0" opacity="0.9">≈</text>
<text x="104" y="60" font-family="Georgia,'Iowan Old Style','Times New Roman',serif" font-size="33" fill="#E6E1D6" letter-spacing="1.5">The Sea</text>
<text x="104" y="90" font-family="'Segoe UI',Inter,'Helvetica Neue',Arial,sans-serif" font-size="16" fill="#8C9399" letter-spacing="0.3">Ships bought not crafted, crews who remember, routes that run unwatched</text>
</svg>
